<svg id="visual" viewBox="0 0 600 900" width="600" height="900" xmlns="http://www.w3.org/2000/svg" xmlns:xlink="http://www.w3.org/1999/xlink" version="1.1"><rect x="0" y="0" width="600" height="900" fill="#282a36"></rect><path d="M0 728L14.3 714.5C28.7 701 57.3 674 85.8 667.7C114.3 661.3 142.7 675.7 171.2 676.8C199.7 678 228.3 666 257 671.3C285.7 676.7 314.3 699.3 343 710.7C371.7 722 400.3 722 428.8 713.2C457.3 704.3 485.7 686.7 514.2 678.5C542.7 670.3 571.3 671.7 585.7 672.3L600 673L600 901L585.7 901C571.3 901 542.7 901 514.2 901C485.7 901 457.3 901 428.8 901C400.3 901 371.7 901 343 901C314.3 901 285.7 901 257 901C228.3 901 199.7 901 171.2 901C142.7 901 114.3 901 85.8 901C57.3 901 28.7 901 14.3 901L0 901Z" fill="#383a59"></path><path d="M0 736L14.3 739.7C28.7 743.3 57.3 750.7 85.8 745.7C114.3 740.7 142.7 723.3 171.2 722.7C199.7 722 228.3 738 257 746.7C285.7 755.3 314.3 756.7 343 752.3C371.7 748 400.3 738 428.8 735.3C457.3 732.7 485.7 737.3 514.2 727.5C542.7 717.7 571.3 693.3 585.7 681.2L600 669L600 901L585.7 901C571.3 901 542.7 901 514.2 901C485.7 901 457.3 901 428.8 901C400.3 901 371.7 901 343 901C314.3 901 285.7 901 257 901C228.3 901 199.7 901 171.2 901C142.7 901 114.3 901 85.8 901C57.3 901 28.7 901 14.3 901L0 901Z" fill="#6c5389"></path><path d="M0 804L14.3 806C28.7 808 57.3 812 85.8 813C114.3 814 142.7 812 171.2 799.8C199.7 787.7 228.3 765.3 257 761.5C285.7 757.7 314.3 772.3 343 781.3C371.7 790.3 400.3 793.7 428.8 791.3C457.3 789 485.7 781 514.2 780.8C542.7 780.7 571.3 788.3 585.7 792.2L600 796L600 901L585.7 901C571.3 901 542.7 901 514.2 901C485.7 901 457.3 901 428.8 901C400.3 901 371.7 901 343 901C314.3 901 285.7 901 257 901C228.3 901 199.7 901 171.2 901C142.7 901 114.3 901 85.8 901C57.3 901 28.7 901 14.3 901L0 901Z" fill="#b168af"></path><path d="M0 829L14.3 833.2C28.7 837.3 57.3 845.7 85.8 851.2C114.3 856.7 142.7 859.3 171.2 852.2C199.7 845 228.3 828 257 824.2C285.7 820.3 314.3 829.7 343 830.2C371.7 830.7 400.3 822.3 428.8 822.3C457.3 822.3 485.7 830.7 514.2 834.3C542.7 838 571.3 837 585.7 836.5L600 836L600 901L585.7 901C571.3 901 542.7 901 514.2 901C485.7 901 457.3 901 428.8 901C400.3 901 371.7 901 343 901C314.3 901 285.7 901 257 901C228.3 901 199.7 901 171.2 901C142.7 901 114.3 901 85.8 901C57.3 901 28.7 901 14.3 901L0 901Z" fill="#ff79c6"></path></svg>