<svg id="visual" viewBox="0 0 900 600" width="900" height="600" xmlns="http://www.w3.org/2000/svg" xmlns:xlink="http://www.w3.org/1999/xlink" version="1.1"><rect x="0" y="0" width="900" height="600" fill="#282a36"></rect><path d="M0 485L21.5 476C43 467 86 449 128.8 444.8C171.7 440.7 214.3 450.3 257.2 451C300 451.7 343 443.3 385.8 446.8C428.7 450.3 471.3 465.7 514.2 473.3C557 481 600 481 642.8 475.2C685.7 469.3 728.3 457.7 771.2 452.3C814 447 857 448 878.5 448.5L900 449L900 601L878.5 601C857 601 814 601 771.2 601C728.3 601 685.7 601 642.8 601C600 601 557 601 514.2 601C471.3 601 428.7 601 385.8 601C343 601 300 601 257.2 601C214.3 601 171.7 601 128.8 601C86 601 43 601 21.5 601L0 601Z" fill="#383a59"></path><path d="M0 490L21.5 492.5C43 495 86 500 128.8 496.8C171.7 493.7 214.3 482.3 257.2 482C300 481.7 343 492.3 385.8 498C428.7 503.7 471.3 504.3 514.2 501.3C557 498.3 600 491.7 642.8 489.8C685.7 488 728.3 491 771.2 484.3C814 477.7 857 461.3 878.5 453.2L900 445L900 601L878.5 601C857 601 814 601 771.2 601C728.3 601 685.7 601 642.8 601C600 601 557 601 514.2 601C471.3 601 428.7 601 385.8 601C343 601 300 601 257.2 601C214.3 601 171.7 601 128.8 601C86 601 43 601 21.5 601L0 601Z" fill="#6c5389"></path><path d="M0 536L21.5 537.3C43 538.7 86 541.3 128.8 542C171.7 542.7 214.3 541.3 257.2 533.2C300 525 343 510 385.8 507.3C428.7 504.7 471.3 514.3 514.2 520.3C557 526.3 600 528.7 642.8 527.2C685.7 525.7 728.3 520.3 771.2 520.2C814 520 857 525 878.5 527.5L900 530L900 601L878.5 601C857 601 814 601 771.2 601C728.3 601 685.7 601 642.8 601C600 601 557 601 514.2 601C471.3 601 428.7 601 385.8 601C343 601 300 601 257.2 601C214.3 601 171.7 601 128.8 601C86 601 43 601 21.5 601L0 601Z" fill="#b168af"></path><path d="M0 552L21.5 554.8C43 557.7 86 563.3 128.8 567.2C171.7 571 214.3 573 257.2 568.2C300 563.3 343 551.7 385.8 549C428.7 546.3 471.3 552.7 514.2 553C557 553.3 600 547.7 642.8 547.7C685.7 547.7 728.3 553.3 771.2 555.8C814 558.3 857 557.7 878.5 557.3L900 557L900 601L878.5 601C857 601 814 601 771.2 601C728.3 601 685.7 601 642.8 601C600 601 557 601 514.2 601C471.3 601 428.7 601 385.8 601C343 601 300 601 257.2 601C214.3 601 171.7 601 128.8 601C86 601 43 601 21.5 601L0 601Z" fill="#ff79c6"></path></svg>